<svg id="Capa_1" enable-background="new 0 0 512 512" height="512" viewBox="0 0 512 512" width="512" xmlns="http://www.w3.org/2000/svg"><g><g><g><g><circle cx="99.029" cy="51.844" fill="#f97c15" r="15.45"/></g><g><circle cx="99.029" cy="45.821" fill="#ff993a" r="9.427"/></g></g><g><g><circle cx="412.971" cy="51.844" fill="#f97c15" r="15.45"/></g><g><circle cx="412.971" cy="45.821" fill="#ff993a" r="9.427"/></g></g><g><g><g><path d="m396.723 345.159c-7.332 7.332-18.747 8.653-27.56 3.19l-40.69-25.226 46.214-46.214 25.226 40.69c5.463 8.813 4.142 20.228-3.19 27.56z" fill="#f97c15"/><path d="m396.72 345.156c-7.33 7.34-18.74 8.66-27.56 3.19l-3.71-2.3c7.29-7.38 11.79-17.53 11.79-28.74 0-11.82-5.01-22.47-13.02-29.93l10.47-10.47 25.22 40.69c5.47 8.82 4.14 20.229-3.19 27.56z" fill="#e86300"/><path d="m115.277 345.159c7.332 7.332 18.747 8.653 27.56 3.19l40.691-25.226-46.214-46.214-25.226 40.69c-5.464 8.813-4.143 20.228 3.189 27.56z" fill="#f97c15"/><path d="m183.53 323.126-40.69 25.22c-7.6 4.71-17.11 4.39-24.29-.49 14.58-4.19 25.25-17.62 25.25-33.55 0-10.93-5.02-20.68-12.88-27.09l6.39-10.31z" fill="#e86300"/></g><g><g><g><path d="m335.317 87.473h49.257v34.792h-49.257z" fill="#f97c15" transform="matrix(.707 .707 -.707 .707 179.579 -223.804)"/><path d="m399.148 140.622c4.217 4.217 11.06 4.217 15.28.002.003-.003.006-.006.008-.008 24.918-24.918 24.918-65.319 0-90.237s-65.319-24.918-90.237 0c-.002.002-.004.004-.008.008-4.214 4.221-4.215 11.063.002 15.28z" fill="#ffe059"/></g><g><path d="m127.426 87.473h49.257v34.792h-49.257z" fill="#f97c15" transform="matrix(-.707 .707 -.707 -.707 333.727 71.504)"/><g fill="#ffe059"><path d="m112.852 140.622c-4.217 4.217-11.06 4.217-15.28.002-.003-.003-.006-.006-.008-.008-24.918-24.918-24.918-65.319 0-90.237s65.319-24.918 90.237 0c.002.002.004.004.008.008 4.214 4.221 4.215 11.063-.002 15.28z"/><path d="m109.443 101.605c-1.925-10.56 1.188-21.865 9.335-30.013 6.385-6.385 14.875-9.902 23.905-9.902 2.076 0 4.124.186 6.124.55z"/></g></g></g><g><g><g><g><g><g><g><circle cx="256.002" cy="206.543" fill="#ffc751" r="140.133"/></g><g><g><path d="m396.128 206.541c0 77.391-62.727 140.132-140.132 140.132-62.298 0-115.097-40.641-133.319-96.874 22.806 34.465 61.924 57.202 106.359 57.202 70.371 0 127.42-57.05 127.42-127.434 0-44.421-22.737-83.539-57.216-106.345 56.233 18.208 96.888 71.021 96.888 133.319z" fill="#ffaf40"/></g></g></g></g></g></g><g><g><circle cx="256.732" cy="206.543" fill="#d8d4c9" r="103.55"/></g><g><circle cx="236.492" cy="187.99" fill="#f1eee0" r="76.309"/></g><path d="m263.637 202.585h-13.811v-73.488c0-2.761 2.239-5 5-5h3.811c2.761 0 5 2.239 5 5z" fill="#fe255f"/></g></g><g><path d="m143.371 247.636c8.496-3.064 13.585-11.862 11.815-20.719-1.317-6.587-2.008-13.4-2.008-20.376 0-49.519 34.767-90.921 81.227-101.131 8.498-1.868 14.622-9.283 14.622-17.984 0-11.727-10.825-20.391-22.295-17.954-63.342 13.46-110.866 69.717-110.866 137.069 0 9.523.952 18.822 2.765 27.81 2.203 10.925 13.721 17.258 24.205 13.477.178-.063.357-.128.535-.192z" fill="#ffe059"/></g><g><path d="m164.798 158.884c9.912-19.084 25.587-34.695 44.725-44.518 8.274-4.247 12.108-13.958 8.878-22.679-.043-.115-.086-.231-.128-.346-3.799-10.242-15.683-14.846-25.431-9.916-25.964 13.132-47.287 34.107-60.853 59.809-5.651 10.707.222 23.885 11.955 26.87l.38.097c8.166 2.077 16.591-1.84 20.474-9.317z" fill="#fff370"/></g><g><path d="m335.801 271.602c-3.853 4.767-8.12 9.186-12.747 13.201-7.307 6.339-8.489 17.238-2.652 24.952.075.099.149.197.224.296 6.412 8.47 18.618 9.694 26.672 2.768 6.289-5.408 12.091-11.365 17.334-17.796 6.938-8.509 4.857-21.199-4.43-27.055-.131-.083-.262-.165-.394-.248-7.844-4.949-18.177-3.331-24.007 3.882z" fill="#ffc751"/></g></g><path d="m414.44 140.614c-.01.01-.01.01-.01.01-4.22 4.22-11.06 4.22-15.28 0l-16.09-16.09c15.43-9.98 25.63-27.34 25.63-47.08 0-17.09-7.65-32.4-19.71-42.67 9.31 3.01 18.07 8.21 25.46 15.6 24.91 24.909 24.91 65.31 0 90.23z" fill="#ffc751"/><path d="m187.81 65.663-74.96 74.96c-4.22 4.22-11.06 4.22-15.28 0 0 0 0 0-.01-.01-4.98-4.98-8.96-10.57-11.95-16.54 37.48-.93 67.57-31.59 67.57-69.3 0-7.96-1.34-15.61-3.82-22.73 14.04 1.47 27.68 7.58 38.44 18.34h.01c4.21 4.221 4.21 11.07 0 15.28z" fill="#ffc751"/><path d="m96.471 99.276c6.47-.519 11.844-5.166 13.312-11.489 1.379-5.938 4.375-11.572 8.997-16.194 3.82-3.826 8.396-6.616 13.392-8.24 6.138-1.995 10.177-7.869 10.098-14.323l-.004-.3c-.122-9.945-9.838-16.979-19.302-13.918-9.289 3.004-18.025 8.192-25.404 15.571-8.836 8.836-14.53 19.621-17.092 30.973-2.19 9.704 5.787 18.731 15.704 17.944.099-.008.199-.016.299-.024z" fill="#fff370"/><path d="m97.575 85.109c6.373 1.398 12.812-1.546 16.191-7.128 1.378-2.276 3.049-4.424 5.013-6.388 1.273-1.275 2.631-2.435 4.059-3.476 5.198-3.785 7.523-10.373 5.549-16.492-3.178-9.849-15.076-13.728-23.419-7.605-2.589 1.901-5.068 4.022-7.409 6.363-3.77 3.77-6.967 7.894-9.594 12.265-5.303 8.829-.449 20.254 9.61 22.461z" fill="#fff7c7"/><path d="m388.741 87.444-26.677-26.677c-6.093-6.093-16.05-5.791-21.78.644-.067.075-.134.151-.201.226-5.268 5.919-4.994 14.924.609 20.527l26.677 26.678c6.108 6.108 16.117 5.806 21.814-.687.067-.076.133-.152.2-.228 5.213-5.938 4.946-14.895-.642-20.483z" fill="#fff370"/><path d="m378.055 76.758-5.292-5.292c-5.908-5.908-15.487-5.905-21.391.006-5.899 5.906-5.896 15.476.006 21.379l5.292 5.292c5.908 5.908 15.488 5.905 21.392-.007 5.899-5.906 5.896-15.475-.007-21.378z" fill="#fff7c7"/></g></g><g><g><g><g><path d="m507.89 456.319c2.54 2.55 4.11 6.06 4.11 9.94 0 7.76-6.29 14.05-14.05 14.05h-430.51c-18.63 0-35.48-7.55-47.68-19.76-12.21-12.2-19.76-29.06-19.76-47.68 0-37.26 30.2-67.45 67.44-67.45h430.51c7.76 0 14.05 6.3 14.05 14.05 0 7.76-6.29 14.05-14.05 14.05h-318.6c-21.7 0-39.34 17.65-39.34 39.35 0 21.69 17.64 39.34 39.34 39.34h318.6c3.88 0 7.39 1.57 9.94 4.11z" fill="#7cbaf7"/><path d="m507.887 456.317c2.538 2.547 4.113 6.058 4.113 9.939 0 7.762-6.289 14.051-14.051 14.051h-326.995c-18.627 0-35.485-7.549-47.684-19.757-12.208-12.199-19.757-29.057-19.757-47.684 0-37.254 30.196-67.45 67.441-67.45h326.995c7.762 0 14.051 6.299 14.051 14.051 0 7.762-6.289 14.051-14.051 14.051h-318.602c-21.693 0-39.338 17.654-39.338 39.347s17.645 39.338 39.338 39.338h318.602c3.881.002 7.391 1.577 9.938 4.114z" fill="#229bff"/><path d="m419.071 452.205h-80.965c-7.76 0-14.051 6.291-14.051 14.051 0 7.76 6.291 14.051 14.051 14.051h80.965c7.76 0 14.051-6.291 14.051-14.051.001-7.76-6.29-14.051-14.051-14.051z" fill="#48acff"/><path d="m399.118 345.417h-194.179c-7.76 0-14.051 6.291-14.051 14.051 0 7.76 6.291 14.051 14.051 14.051h194.179c7.76 0 14.051-6.291 14.051-14.051 0-7.76-6.291-14.051-14.051-14.051z" fill="#48acff"/><path d="m339.198 345.417h-100.434c-7.76 0-14.051 6.291-14.051 14.051 0 7.76 6.291 14.051 14.051 14.051h100.434c7.76 0 14.051-6.291 14.051-14.051.001-7.76-6.29-14.051-14.051-14.051z" fill="#7cbaf7"/><g><path d="m179.348 452.205c-21.693 0-39.342-17.648-39.342-39.341s17.649-39.342 39.342-39.342h318.034v78.683z" fill="#f1eee0"/><path d="m497.383 452.205h-318.035c-21.693 0-39.342-17.648-39.342-39.341h357.376v39.341z" fill="#d8d4c9"/></g></g></g></g></g><path d="m324.934 216.248h-68.933v-19.409h68.933c2.761 0 5 2.239 5 5v9.409c0 2.762-2.238 5-5 5z" fill="#fe255f"/><g><g><circle cx="256.732" cy="206.543" fill="#ffaf40" r="15.45"/></g><g><circle cx="256.732" cy="200.52" fill="#ffc751" r="9.427"/></g></g></g></g><path d="m67.44 345.419c-37.24 0-67.44 30.19-67.44 67.45 0 7.806 1.329 15.3 3.772 22.271 4.408 12.578 20.735 15.694 29.483 5.638.078-.089.155-.178.233-.267 4.085-4.689 5.291-11.202 3.266-17.083-1.168-3.395-1.769-6.997-1.754-10.694.073-17.981 15.149-32.315 33.131-32.315h14.894c9.665 0 17.5-7.835 17.5-17.5 0-9.665-7.835-17.5-17.5-17.5z" fill="#a9cffc"/><path d="m38.145 399.107c3.001-6.231 7.968-11.364 14.071-14.662 6.922-3.742 10.562-11.582 8.691-19.225-.078-.318-.156-.636-.234-.954-2.632-10.74-14.636-16.314-24.435-11.191-12.893 6.74-23.335 17.526-29.64 30.676-4.809 10.031.891 21.931 11.67 24.679.114.029.229.058.343.087 7.926 2.014 15.985-2.041 19.534-9.41z" fill="#cbe1ff"/></g></svg>